<svg width="31" height="31" viewBox="0 0 31 31" fill="none" xmlns="http://www.w3.org/2000/svg">
<circle cx="15.3613" cy="15.3185" r="14.84" stroke="#8F00FF" stroke-width="0.957417"/>
<g clip-path="url(#clip0_1029_3390)">
<path fill-rule="evenodd" clip-rule="evenodd" d="M16.2024 8.98471C16.3482 9.03055 16.4755 9.1217 16.5659 9.2449C16.6563 9.3681 16.7051 9.51693 16.7051 9.66974V13.2601H19.5773C19.7087 13.26 19.8375 13.296 19.9498 13.364C20.0622 13.4321 20.1537 13.5297 20.2144 13.6462C20.2751 13.7627 20.3027 13.8936 20.2942 14.0246C20.2857 14.1557 20.2414 14.2819 20.1661 14.3896L15.1397 21.5702C15.0522 21.6955 14.927 21.7897 14.7823 21.8389C14.6377 21.8882 14.481 21.89 14.3352 21.8441C14.1895 21.7982 14.0621 21.707 13.9718 21.5837C13.8814 21.4605 13.8327 21.3116 13.8328 21.1588V17.5684H10.9606C10.8292 17.5685 10.7004 17.5325 10.5881 17.4644C10.4757 17.3964 10.3842 17.2988 10.3235 17.1823C10.2628 17.0658 10.2352 16.9349 10.2437 16.8039C10.2522 16.6728 10.2965 16.5466 10.3718 16.4389L15.3982 9.25829C15.4858 9.1332 15.611 9.03929 15.7557 8.99022C15.9003 8.94115 16.0568 8.93947 16.2024 8.98543V8.98471Z" fill="#8F00FF"/>
</g>
<defs>
<clipPath id="clip0_1029_3390">
<rect width="14.3613" height="14.3613" fill="white" transform="translate(8.08398 8.23364)"/>
</clipPath>
</defs>
</svg>
